<?xml version="1.0" encoding="UTF-8" standalone="no"?>
<!-- Created with Inkscape (http://www.inkscape.org/) -->
<svg version="1.1" id="Fire_Water_Tank_3_1" inkscape:version="1.1.1 (3bf5ae0d25, 2021-09-20)" x="0px" y="0px" viewBox="0 0 135 165" xml:space="preserve" sodipodi:docname="water-tank.svg" width="135" height="165" xmlns:inkscape="http://www.inkscape.org/namespaces/inkscape" xmlns:sodipodi="http://sodipodi.sourceforge.net/DTD/sodipodi-0.dtd" xmlns="http://www.w3.org/2000/svg" xmlns:svg="http://www.w3.org/2000/svg">
    <sodipodi:namedview bordercolor="#666666" borderopacity="1.0" id="Fire_Water_Tank_3_2" inkscape:current-layer="g159" inkscape:cx="49.090393" inkscape:cy="65.691501" inkscape:document-units="pt" inkscape:pagecheckerboard="0" inkscape:pageopacity="0.0" inkscape:pageshadow="2" inkscape:window-height="1001" inkscape:window-maximized="1" inkscape:window-width="1920" inkscape:window-x="-9" inkscape:window-y="-9" inkscape:zoom="1" pagecolor="#ffffff" showgrid="false">
    </sodipodi:namedview>
    <defs id="Fire_Water_Tank_3_4">
      <filter id="Fire_Water_Tank_3_filterId" primitiveUnits="objectBoundingBox" x="-0.0041029792" y="-0.011092992" width="1.008206" height="1.0247414">
        <feFlood x="0%" y="0%" width="100%" height="100%" flood-color="#03174f" id="Fire_Water_Tank_3_6"></feFlood>
        <feOffset dy="0.15000000000000002" id="Fire_Water_Tank_3_7">
          <animate attributeName="dy" from="1" to="0.15000000000000002" dur="3s"></animate>
        </feOffset>
        <feComposite operator="in" in2="SourceGraphic" id="Fire_Water_Tank_3_8"></feComposite>
        <feComposite operator="over" in2="SourceGraphic" id="Fire_Water_Tank_3_9"></feComposite>
      </filter>
    </defs>
    <g id="Fire_Water_Tank_3_10">
      <path filter="url(#Fire_Water_Tank_3_filterId)" class="tanker-tank" d="m 45.4,15.5 c 0,0 -37,3.6 -38.1,17 -1.1,13.4 0,109.8 0,109.8 0,0 -0.4,8.6 46.2,11.5 4.2,0.7 67.2,0.8 73.6,-10.8 2.8,-4.5 0,-111.8 0,-111.8 -3.8,-16.9 -57.3,-17 -81.7,-15.7 z" id="Fire_Water_Tank_3_11" style="fill: #fff; stroke: #03174f; stroke-width: 2;stroke-miterlimit: 10;"></path>
      <g id="Fire_Water_Tank_3_12" class="lid" inkscape:label="XMLID_1_">
        <path class="st1" d="m 88.3,10.1 v 4.1 C 88,15.1 80.7,16.8 67,16.8 53.3,16.8 46,15.1 45.7,14.2 V 10.1 C 46,9.2 53.3,7.5 67,7.5 c 13.7,0 21,1.7 21.3,2.6 z" id="Fire_Water_Tank_3_13" style="fill: #ffffff"></path>
        <path id="Fire_Water_Tank_3_14" class="st2" d="M 67,13.8 C 37.8,14 37.8,6.2 67,6.4 c 29.3,-0.2 29.2,7.7 0,7.4 z m 0,-6.3 c -13.7,0 -21,1.7 -21.3,2.6 -0.3,3.2 43,3.2 42.6,0 C 88,9.2 80.7,7.5 67,7.5 Z" style="fill:#03174f"></path>
        <path id="Fire_Water_Tank_3_15" class="st2" d="m 74,10.8 c -2,0.1 -0.2,-6.3 -1.1,-7 0,0 -12.9,0 -12.9,0 -0.5,-0.1 0,6 -0.2,6.2 0,1.2 -1.8,1.2 -1.8,0 0,0 0,-6 0,-6 0,-1.1 0.9,-2 1.9,-2 h 12.9 c 1.1,0 2,0.9 2,2 -0.3,0.7 0.8,7 -0.8,6.8 z" style="fill: #03174f"></path>
        <path class="st2" d="M 88.3,14.2 V 10.1 C 88,9.2 80.7,7.5 67,7.5 53.3,7.5 46,9.2 45.7,10.1 v 4.1 c 0.3,0.9 7.6,2.6 21.3,2.6 13.7,0 21,-1.7 21.3,-2.6 z m 1,-4 v 4.1 C 89.3,17.2 74.7,18 67,18 59.3,18 44.7,17.2 44.7,14.3 v -4.1 c 0,-2.9 14.6,-3.7 22.3,-3.7 7.7,0 22.3,0.8 22.3,3.7 z" id="Fire_Water_Tank_3_16" style="fill: #03174f"></path>
      </g>
      <path d="M8.4,129.3c0,0,57.8,19.4,118.7,0" style="fill:none; stroke: #ffffff; stroke-width:2; stroke-miterlimit: 10;"></path>
      <path d="M8.1,66.3c0,0,57.5,19.4,118.3,0" style="fill:none; stroke: #ffffff; stroke-width:2; stroke-miterlimit: 10;"></path>
      <path d="M8.1,98.3c0,0,57.5,19.4,118.3,0" style="fill:none; stroke: #ffffff; stroke-width:2; stroke-miterlimit: 10;"></path>
      <path d="M8.4,34.3c0,0,57.4,19.4,118,0" style="fill:none; stroke: #ffffff; stroke-width:2; stroke-miterlimit: 10;"></path>
      <text xml:space="preserve" style="
          font-style: normal;
          font-weight: normal;
          font-size: 26px;
          line-height: 1.25;
          font-family: sans-serif;
          fill: #f37022;
          fill-opacity: 1;
          stroke: none;
        " x="-30" y="98">
        <tspan sodipodi:role="line" id="tspan1513" x="-30" y="98">
          85%
        </tspan>
      </text>
    </g>
  </svg>